<svg width="67" height="67" viewBox="0 0 67 67" fill="none" xmlns="http://www.w3.org/2000/svg">
<path fill-rule="evenodd" clip-rule="evenodd" d="M21.221 3.42797C22.1809 1.40547 24.2479 0 26.6441 0H40.3559C42.7487 0 44.8157 1.40547 45.779 3.42797C48.1203 3.44854 49.9474 3.5548 51.5791 4.1924C53.527 4.95434 55.221 6.24923 56.4674 7.92889C57.7255 9.61888 58.3151 11.7922 59.1275 14.778L59.2543 15.2442L61.2768 22.6726C62.6266 23.3511 63.8091 24.3204 64.7391 25.5109C66.8713 28.243 67.2484 31.4962 66.8713 35.2258C66.5011 38.8457 65.363 43.4049 63.9369 49.1125L63.8444 49.4724C62.9428 53.0821 62.2092 56.013 61.342 58.2994C60.4301 60.6853 59.2783 62.6392 57.3758 64.1236C55.4767 65.6079 53.3 66.2489 50.7667 66.5574C48.3363 66.8454 45.3162 66.8454 41.5969 66.8454H25.4032C21.6838 66.8454 18.6603 66.8454 16.2333 66.554C13.6966 66.2523 11.5233 65.6079 9.62079 64.1201C7.7217 62.6393 6.5699 60.6853 5.65806 58.2994C4.78736 56.013 4.0572 53.0821 3.15565 49.4724L3.06309 49.1125C1.63706 43.4049 0.495545 38.8457 0.128753 35.2292C-0.248324 31.4927 0.128752 28.243 2.25752 25.5109C3.22763 24.27 4.38972 23.3513 5.71977 22.6726L7.74227 15.2442L7.87253 14.778C8.68496 11.7922 9.27457 9.61888 10.5326 7.92546C11.7795 6.24706 13.4735 4.9534 15.4209 4.1924C17.0526 3.5548 18.8763 3.44511 21.221 3.42797ZM21.2245 8.5802C18.9552 8.6042 18.0467 8.6899 17.2926 8.9847C16.2435 9.39496 15.3311 10.0923 14.6599 10.9969C14.0566 11.8093 13.7001 12.944 12.706 16.6016L11.4925 21.0443C15.0507 20.5678 19.6442 20.5678 25.3483 20.5678H41.6483C47.3559 20.5678 51.9493 20.5678 55.5041 21.0443L54.2941 16.5982C53.2965 12.9406 52.9434 11.8059 52.3401 10.9935C51.6689 10.0889 50.7565 9.39154 49.7074 8.98127C48.9533 8.68647 48.0415 8.60077 45.7721 8.57677C45.2849 9.60057 44.5175 10.4653 43.5589 11.0708C42.6003 11.6763 41.4898 11.9978 40.3559 11.9979H26.6441C25.5103 11.9978 24.3997 11.6763 23.4411 11.0708C22.4825 10.4653 21.7151 9.60057 21.2279 8.57677M26.6441 5.14195C26.4168 5.14195 26.1988 5.23224 26.0381 5.39296C25.8774 5.55368 25.7871 5.77166 25.7871 5.99894C25.7871 6.22623 25.8774 6.44421 26.0381 6.60493C26.1988 6.76565 26.4168 6.85594 26.6441 6.85594H40.3559C40.5832 6.85594 40.8012 6.76565 40.9619 6.60493C41.1227 6.44421 41.2129 6.22623 41.2129 5.99894C41.2129 5.77166 41.1227 5.55368 40.9619 5.39296C40.8012 5.23224 40.5832 5.14195 40.3559 5.14195H26.6441ZM11.9038 26.176C8.78437 26.6285 7.27264 27.4512 6.31623 28.6784C5.3564 29.9022 4.92791 31.5647 5.24671 34.7047C5.57236 37.9133 6.6179 42.1092 8.10563 48.0738C9.05861 51.872 9.71678 54.5047 10.4709 56.4723C11.1908 58.3714 11.9004 59.3758 12.7917 60.0717C13.6795 60.7642 14.8245 61.2064 16.847 61.4497C18.938 61.7 21.6461 61.7034 25.5677 61.7034H41.4392C45.3574 61.7034 48.0723 61.7 50.1599 61.4497C52.1824 61.2098 53.3274 60.7642 54.2152 60.0717C55.1065 59.3758 55.8127 58.3714 56.5394 56.4723C57.2867 54.5047 57.9483 51.872 58.8978 48.0738C60.389 42.1092 61.4345 37.9133 61.7568 34.7047C62.079 31.5647 61.6471 29.8987 60.6907 28.6749C59.7343 27.4512 58.2225 26.6285 55.0996 26.176C51.9116 25.7166 47.5855 25.7098 41.4392 25.7098H25.5677C19.4214 25.7098 15.0953 25.7166 11.9072 26.176" fill="currentColor"/>
</svg>
