<svg width="360" height="361" viewBox="0 0 360 361" fill="none" xmlns="http://www.w3.org/2000/svg">
<circle cx="179.825" cy="180.514" r="179.825" fill="#0B191E"/>
<circle cx="179.825" cy="180.514" r="178.873" stroke="black" stroke-opacity="0.2" stroke-width="1.90291"/>
<path d="M256.1 135.031L156.311 234.821C155.732 235.4 155.044 235.861 154.287 236.174C153.529 236.488 152.718 236.65 151.898 236.65C151.079 236.65 150.267 236.488 149.51 236.174C148.753 235.861 148.065 235.4 147.486 234.821L103.828 191.163C102.657 189.992 102 188.405 102 186.75C102 185.095 102.657 183.508 103.828 182.338C104.998 181.167 106.585 180.51 108.24 180.51C109.895 180.51 111.483 181.167 112.653 182.338L151.898 221.591L247.275 126.206C248.446 125.036 250.033 124.378 251.688 124.378C253.343 124.378 254.93 125.036 256.1 126.206C257.271 127.376 257.928 128.963 257.928 130.618C257.928 132.274 257.271 133.861 256.1 135.031Z" fill="white"/>
</svg>
