<svg width="81" height="79" viewBox="0 0 81 79" fill="none" xmlns="http://www.w3.org/2000/svg">
<g filter="url(#filter0_d_12_134)">
<path d="M74 35.5907C74.011 42.0624 72.0329 48.3895 68.3199 53.7588C65.2578 58.2029 61.1176 61.8443 56.2654 64.3611C51.4132 66.878 45.9985 68.1927 40.5 68.189C35.0015 68.1927 29.5867 66.878 24.7345 64.3611C19.8823 61.8443 15.7422 58.2029 12.6801 53.7588C9.76461 49.5298 7.90786 44.6949 7.25872 39.6417C6.60957 34.5886 7.18609 29.4577 8.94206 24.6605C10.698 19.8632 13.5846 15.533 17.3704 12.0169C21.1561 8.50089 25.7358 5.89683 30.7422 4.41351C35.7486 2.93018 41.0426 2.60885 46.1996 3.47528C51.3567 4.3417 56.2334 6.37178 60.4388 9.40278C64.6443 12.4338 68.0615 16.3814 70.4164 20.9291C72.7714 25.4768 73.9987 30.4982 74 35.5907Z" stroke="#545454" stroke-width="5"/>
<path d="M46.0828 24.7246C46.0828 26.1656 45.4945 27.5475 44.4475 28.5664C43.4004 29.5853 41.9802 30.1577 40.4994 30.1577V33.7797C41.7215 33.7797 42.9315 33.5455 44.0605 33.0904C45.1895 32.6354 46.2154 31.9684 47.0795 31.1275C47.9436 30.2867 48.629 29.2885 49.0967 28.1899C49.5643 27.0912 49.805 25.9138 49.805 24.7246H46.0828ZM40.4994 30.1577C39.0187 30.1577 37.5985 29.5853 36.5514 28.5664C35.5044 27.5475 34.9161 26.1656 34.9161 24.7246H31.1939C31.1939 25.9138 31.4346 27.0912 31.9022 28.1899C32.3699 29.2885 33.0553 30.2867 33.9194 31.1275C35.6646 32.8257 38.0315 33.7797 40.4994 33.7797V30.1577ZM34.9161 24.7246C34.9161 23.2837 35.5044 21.9018 36.5514 20.8829C37.5985 19.864 39.0187 19.2916 40.4994 19.2916V15.6696C38.0315 15.6696 35.6646 16.6236 33.9194 18.3217C32.1743 20.0199 31.1939 22.3231 31.1939 24.7246H34.9161ZM40.4994 19.2916C41.9802 19.2916 43.4004 19.864 44.4475 20.8829C45.4945 21.9018 46.0828 23.2837 46.0828 24.7246H49.805C49.805 22.3231 48.8246 20.0199 47.0795 18.3217C45.3343 16.6236 42.9674 15.6696 40.4994 15.6696V19.2916ZM15.0618 56.8013L13.2751 56.287L12.9885 57.2323L13.6474 57.9821L15.0618 56.8013ZM65.9371 56.8013L67.3515 57.9821L68.0104 57.2323L67.72 56.287L65.9371 56.8013ZM29.3328 48.2678H51.6661V44.6458H29.3328V48.2678ZM29.3328 44.6458C25.7257 44.6464 22.2151 45.7796 19.3228 47.8769C16.4305 49.9742 14.3071 52.9237 13.2751 56.287L16.8447 57.3193C17.6482 54.7038 19.2974 52.4103 21.5472 50.7796C23.797 49.1489 26.5274 48.2681 29.3328 48.2678V44.6458ZM40.4994 66.378C35.9333 66.3827 31.4204 65.4234 27.2723 63.5661C23.1241 61.7089 19.4395 58.998 16.4725 55.6205L13.6474 57.9821C16.964 61.7554 21.0823 64.7838 25.718 66.8586C30.3538 68.9334 35.3968 70.0051 40.4994 70V66.378ZM51.6661 48.2678C54.4719 48.2683 57.2027 49.1497 59.4526 50.7811C61.7025 52.4125 63.3513 54.7067 64.1542 57.3229L67.72 56.287C66.6881 52.9237 64.5684 49.9742 61.6761 47.8769C58.7838 45.7796 55.2732 44.6464 51.6661 44.6458V48.2678ZM64.5264 55.6205C61.5594 58.998 57.8748 61.7089 53.7266 63.5661C49.5785 65.4234 45.0656 66.3827 40.4994 66.378V70C45.602 70.0051 50.6451 68.9334 55.2809 66.8586C59.9166 64.7838 64.0349 61.7554 67.3515 57.9821L64.5264 55.6205Z" fill="#545454"/>
</g>
<defs>
<filter id="filter0_d_12_134" x="0.5" y="0.5" width="80" height="78.189" filterUnits="userSpaceOnUse" color-interpolation-filters="sRGB">
<feFlood flood-opacity="0" result="BackgroundImageFix"/>
<feColorMatrix in="SourceAlpha" type="matrix" values="0 0 0 0 0 0 0 0 0 0 0 0 0 0 0 0 0 0 127 0" result="hardAlpha"/>
<feOffset dy="4"/>
<feGaussianBlur stdDeviation="2"/>
<feComposite in2="hardAlpha" operator="out"/>
<feColorMatrix type="matrix" values="0 0 0 0 0 0 0 0 0 0 0 0 0 0 0 0 0 0 0.25 0"/>
<feBlend mode="normal" in2="BackgroundImageFix" result="effect1_dropShadow_12_134"/>
<feBlend mode="normal" in="SourceGraphic" in2="effect1_dropShadow_12_134" result="shape"/>
</filter>
</defs>
</svg>
